<svg width="41" height="41" viewBox="0 0 41 41" fill="none" xmlns="http://www.w3.org/2000/svg">
<g clip-path="url(#clip0_0_3)">
<path d="M17.815 15.918C20.2462 15.918 22.217 13.9472 22.217 11.516C22.217 9.08484 20.2462 7.114 17.815 7.114C15.3838 7.114 13.413 9.08484 13.413 11.516C13.413 13.9472 15.3838 15.918 17.815 15.918Z" fill="#0095D3"/>
<path d="M31.167 20.311C31.167 22.744 29.198 24.712 26.764 24.712C24.337 24.712 22.363 22.742 22.363 20.311C22.363 17.878 24.338 15.91 26.764 15.91C29.2 15.909 31.167 17.879 31.167 20.311Z" fill="#0095D3"/>
<path d="M17.801 33.533C20.2322 33.533 22.203 31.5622 22.203 29.131C22.203 26.6998 20.2322 24.729 17.801 24.729C15.3698 24.729 13.399 26.6998 13.399 29.131C13.399 31.5622 15.3698 33.533 17.801 33.533Z" fill="#0095D3"/>
<path d="M20.441 -0.0449982C9.207 -0.0439982 0.099999 9.063 0.098999 20.298C0.099999 31.532 9.207 40.639 20.441 40.641C31.676 40.639 40.782 31.534 40.784 20.298C40.783 9.063 31.677 -0.0439982 20.441 -0.0449982ZM31.891 31.747C28.954 34.681 24.919 36.489 20.441 36.49C15.963 36.489 11.928 34.679 8.991 31.747C6.058 28.81 4.25 24.775 4.249 20.298C4.25 15.82 6.058 11.785 8.992 8.848C11.929 5.914 15.964 4.106 20.442 4.105C24.92 4.106 28.955 5.915 31.892 8.848C34.826 11.786 36.634 15.821 36.635 20.298C36.633 24.775 34.825 28.81 31.891 31.747Z" fill="#0095D3"/>
</g>
<defs>
<clipPath id="clip0_0_3">
<rect width="41" height="41" fill="white"/>
</clipPath>
</defs>
</svg>
